<?xml version="1.0" encoding="utf-8"?>
<!-- Generator: Adobe Illustrator 19.0.0, SVG Export Plug-In . SVG Version: 6.00 Build 0)  -->
<svg version="1.1" id="Warstwa_1" xmlns="http://www.w3.org/2000/svg" xmlns:xlink="http://www.w3.org/1999/xlink" x="0px" y="0px"
	 viewBox="-24 156.3 547 529.6" style="enable-background:new -24 156.3 547 529.6;" xml:space="preserve">
<path d="M430.5,166.9h-362c-41.4,0-75,33.6-75,75v362c0,41.4,33.6,75,75,75h362c41.4,0,75-33.6,75-75v-362
	C505.5,200.5,471.9,166.9,430.5,166.9z M250.5,556.9c-74.4,0-135-60.6-135-135s60.6-135,135-135s135,60.6,135,135
	S324.9,556.9,250.5,556.9z M400.5,316.9c-24.8,0-45-20.2-45-45s20.2-45,45-45s45,20.2,45,45S425.3,316.9,400.5,316.9z"/>
</svg>
