<?xml version="1.0" encoding="utf-8"?>
<!-- Generator: Adobe Illustrator 19.0.0, SVG Export Plug-In . SVG Version: 6.00 Build 0)  -->
<svg version="1.1" id="Warstwa_1" xmlns="http://www.w3.org/2000/svg" xmlns:xlink="http://www.w3.org/1999/xlink" x="0px" y="0px"
	 viewBox="-24 156.3 547 529.6" style="enable-background:new -24 156.3 547 529.6;" xml:space="preserve">
<path d="M426,165.9H64c-41.4,0-75,33.6-75,75v362c0,41.4,33.6,75,75,75h362c41.4,0,75-33.6,75-75v-362
	C501,199.5,467.4,165.9,426,165.9z M170,571.9h-60v-210h60V571.9z M170,331.9h-60v-60h60V331.9z M380,571.9h-60v-120
	c0-16.5-13.5-30-30-30s-30,13.5-30,30v120h-60v-210h60v11.3c15.7-4.9,25.9-11.3,45-11.3c40.7,0,75,36.5,75,79.7V571.9z"/>
</svg>
