<?xml version="1.0" encoding="utf-8"?>
<!-- Generator: Adobe Illustrator 19.0.0, SVG Export Plug-In . SVG Version: 6.00 Build 0)  -->
<svg version="1.1" id="Warstwa_1" xmlns="http://www.w3.org/2000/svg" xmlns:xlink="http://www.w3.org/1999/xlink" x="0px" y="0px"
	 viewBox="-264 389 547 529.6" style="enable-background:new -264 389 547 529.6;" xml:space="preserve">
<style type="text/css">
	.st0{fill:#1D1D1B;}
</style>
<g id="XMLID_9_">
	<path id="XMLID_10_" class="st0" d="M-7.8,762.1l-9.9-0.4v-53.5c-9,19-22.2,34.1-39.6,45.1c-17.4,11.1-36.6,16.6-57.4,16.6
		c-29.8,0-55.2-10.3-76-30.9c-20.6-20.9-30.9-46.2-30.9-76c0-29.8,10.3-55,30.9-75.6c20.9-20.9,46.2-31.3,76-31.3
		c20.9,0,40,5.5,57.4,16.6c17.4,11.1,30.6,26.1,39.6,45.1v-54.3h9.9V762.1z M-17.7,663.5c0-2.9-0.2-6-0.6-9.3
		c-0.4-3.3-0.9-6.8-1.4-10.5c-4.5-22.7-15.7-41.3-33.7-55.8c-17.7-14.5-38.2-21.8-61.4-21.8c-27.2,0-50.2,9.4-68.9,28.1
		c-18.7,18.7-28.1,41.7-28.1,68.9c0,27.2,9.4,50.2,28.1,68.9c18.7,18.7,41.7,28.1,68.9,28.1c26.4,0,49.2-9.4,68.5-28.1
		C-27.2,713-17.7,690.2-17.7,663.5z"/>
	<path id="XMLID_13_" class="st0" d="M224.7,662.7c0,29.3-10.2,54.1-30.5,74.5c-20.1,20.1-44.7,30.1-74.1,30.1
		c-21.9,0-42.2-6.6-61-19.8c-13.2-9.2-28.3-24.9-45.1-47.1C2.1,685-5.7,675.3-9.4,671c-9.8-10.6-20.5-15.8-32.1-15.8
		c-8.7,0-16.4,3.2-23,9.5c-7.4,6.1-10.8,13.3-10.3,21.8c0.5,9,3.7,16.4,9.5,22.2c5.8,5.8,13.1,8.7,21.8,8.7c14.8,0,22.2-5.7,22.2-17
		c0-4.2-1.7-8.2-5.1-12.1c-3.4-3.8-7.3-5.9-11.5-6.1c-5-0.3-9,2-11.9,6.7c2.4-4.8,6.2-7.1,11.5-7.1c4.8,0,8.9,2,12.5,5.9
		c3.6,4,5.3,8.3,5.3,13.1c0,11.9-7.7,17.8-23,17.8c-9.2,0-17-3.1-23.4-9.3c-6.3-6.2-9.5-13.9-9.5-23.2c0-4.8,1-9.1,3-13.1
		c2-4,4.6-7.4,7.7-10.3c3.2-2.9,6.9-5.2,11.1-6.9c4.2-1.7,8.7-2.6,13.5-2.6c14.5,0,29.3,9.9,44.4,29.7L14.8,698
		c2.1,2.9,4.1,5.5,5.9,7.9c1.8,2.4,3.7,4.5,5.5,6.3l7.9,10.3c-2.4-3.2-6.1-10.3-11.1-21.4c-3.7-7.9-8.6-17.8-14.7-29.7
		c-6.1-11.9-13.3-25.9-21.8-42c-8.2-14.8-19.7-27.6-34.5-38.4c-4.5-2.6-8.8-5-13.1-7.1l-4-1.6c-7.1-0.3-13.7-2.6-19.8-7.1l-8.7-6.3
		c6.6,0.3,15,1.9,25.3,4.8l4.4,7.9l-14.3-5.1l11.9,4.8c12.9,5.3,23.4,11.5,31.3,18.6c12.1,10.8,24.4,29.3,36.8,55.4l17,35.2v-1.2
		c-6.3-14.8-10.3-28.4-11.9-40.8c-2.1-16.9-1.2-33.7,2.8-50.3l5.5-24.2l-2.8,10.7l-1.6,7.1L8.8,601c-0.3-0.5-0.6-1.3-1-2.2
		c-0.4-0.9-1.1-2-2.2-3.4c-1.8-2.1-2.5-3.8-2-5.1c0-1.8,3.6-10.6,10.7-26.1c0.3-0.8,0.7-1.8,1.2-3c0.5-1.2,1.1-2.4,1.6-3.8
		c0.8,4.5,1.1,9.4,0.8,14.7c-0.5,10-2.9,19.4-7.1,28.1c-1.8,9-3,17.4-3.6,25.3c-0.8,13.2,0.5,25.3,4,36.4l5.5,16.6
		c-0.8-5.5-1.2-10.8-1.2-15.8c0-29.3,10-54,30.1-74.1c20.3-20.3,45.1-30.5,74.5-30.5c28.8,0,53.3,10.3,73.7,30.9h-14.7
		c-17.2-14-36.8-21-59-21c-26.7,0-49.1,9.1-67.3,27.3c-18.2,18.2-27.3,40.7-27.3,67.3c0,21.1,6.2,40.1,18.6,57
		C56.7,736.7,73.4,748,94,753.8c-30.4-14.3-45.5-39.3-45.5-75.2c0-20.9,5.9-38.3,17.8-52.3c11.9-14.3,28.1-21.4,48.7-21.4
		c21.6,0,37.9,7.8,48.7,23.4h55C222.7,639.4,224.7,650.8,224.7,662.7z M214.8,662.7c0-7.4-1.1-15.6-3.2-24.6h-42.8
		c1.8,4,2.8,9,2.8,15c0,6.9-1.6,12.8-4.8,17.8c-7.7,12.4-18.7,18.6-33.3,18.6c-8.5,0-16-2.4-22.6-7.1c-7.9-5-11.9-11.6-11.9-19.8
		c0-6.1,2.2-11.2,6.7-15.4c4.5-4.2,9.8-6.3,15.8-6.3c0.8,0,1.7,0.1,2.8,0.2c1.1,0.1,2.2,0.3,3.6,0.6c1.1,0,1.7,0.1,2,0.4
		c6.3,1.9,12.3,5.9,17.8,12.3l6.7,8.3c-5.5-2.1-13.3-5.9-23.4-11.5c0-0.5-0.7-3.4-2-8.7l5.5,4.4l4.8,3.2l6.3,4.4L132,643.7
		c-4.8-1.3-7.8-2-9.1-2c-11.4,0-18.6,4.9-21.8,14.7c-1.3,4.2-1.5,7.8-0.4,10.7c3.2,10.8,11.1,17.6,23.8,20.2
		c17.4,3.7,30.6-1.3,39.6-15c3.2-4.8,5-9.5,5.5-14.3c0.5-6.9-0.4-13.5-2.8-19.8h-57.4v-9.9h52.3c-11.1-14-26.8-21-47.1-21
		c-13.5,0-25.5,3.6-36,10.9C68,625.4,60.4,635.4,56,648.1c-3.7,11.1-5.5,21.5-5.5,31.3c0,13.7,2.8,26.3,8.3,37.6
		c8.7,18.8,23.4,31.4,44,38l8.7,1.6c1.3,0.3,2.8,0.5,4.4,0.6c1.6,0.1,3,0.2,4.4,0.2c26.4,0,48.7-9.1,66.9-27.3
		C205.5,711.6,214.8,689.1,214.8,662.7z"/>
</g>
<g id="XMLID_1_">
	<path id="XMLID_2_" class="st0" d="M257.9,899.7l-23.7-0.9V771c-21.4,45.4-53,81.4-94.6,107.8C98,905.3,52.2,918.6,2.4,918.6
		c-71.3,0-131.8-24.6-181.6-73.8C-228.4,795-253,734.4-253,663.2c0-71.3,24.6-131.5,73.8-180.7c49.8-49.8,110.4-74.7,181.6-74.7
		c49.8,0,95.5,13.2,137.2,39.7c41.6,26.5,73.2,62.4,94.6,107.8V425.7h23.7V899.7z M234.2,664.1c0-6.9-0.5-14.3-1.4-22.2
		c-0.9-7.9-2.1-16.2-3.3-25.1c-10.7-54.2-37.5-98.7-80.4-133.4c-42.3-34.7-91.1-52-146.6-52c-65,0-119.8,22.4-164.6,67.2
		c-44.8,44.8-67.2,99.7-67.2,164.6c0,65,22.4,119.8,67.2,164.6c44.8,44.8,99.6,67.2,164.6,67.2c63.1,0,117.6-22.4,163.7-67.2
		C211.5,782.4,234.2,727.8,234.2,664.1z"/>
</g>
</svg>
